<mxfile host="65bd71144e">
    <diagram name="PÃ¡gina-1" id="s52b-2t7SjTrlv_IX_Wi">
        <mxGraphModel dx="1216" dy="825" grid="0" gridSize="10" guides="1" tooltips="1" connect="1" arrows="1" fold="1" page="1" pageScale="1" pageWidth="1920" pageHeight="1200" math="0" shadow="0">
            <root>
                <mxCell id="0"/>
                <mxCell id="1" parent="0"/>
                <mxCell id="fU_N-OgkvJ_QbkL2twpL-1" value="Mindmap" style="swimlane;startSize=20;horizontal=1;containerType=tree;" parent="1" vertex="1">
                    <mxGeometry x="450" y="360" width="504" height="126" as="geometry"/>
                </mxCell>
                <mxCell id="fU_N-OgkvJ_QbkL2twpL-2" value="" style="edgeStyle=entityRelationEdgeStyle;startArrow=none;endArrow=none;segment=10;curved=1;sourcePerimeterSpacing=0;targetPerimeterSpacing=0;rounded=0;" parent="fU_N-OgkvJ_QbkL2twpL-1" source="fU_N-OgkvJ_QbkL2twpL-6" target="fU_N-OgkvJ_QbkL2twpL-7" edge="1">
                    <mxGeometry relative="1" as="geometry"/>
                </mxCell>
                <mxCell id="fU_N-OgkvJ_QbkL2twpL-3" value="" style="edgeStyle=entityRelationEdgeStyle;startArrow=none;endArrow=none;segment=10;curved=1;sourcePerimeterSpacing=0;targetPerimeterSpacing=0;rounded=0;" parent="fU_N-OgkvJ_QbkL2twpL-1" source="fU_N-OgkvJ_QbkL2twpL-6" target="fU_N-OgkvJ_QbkL2twpL-8" edge="1">
                    <mxGeometry relative="1" as="geometry"/>
                </mxCell>
                <mxCell id="fU_N-OgkvJ_QbkL2twpL-4" value="" style="edgeStyle=entityRelationEdgeStyle;startArrow=none;endArrow=none;segment=10;curved=1;sourcePerimeterSpacing=0;targetPerimeterSpacing=0;rounded=0;" parent="fU_N-OgkvJ_QbkL2twpL-1" source="fU_N-OgkvJ_QbkL2twpL-6" target="fU_N-OgkvJ_QbkL2twpL-9" edge="1">
                    <mxGeometry relative="1" as="geometry"/>
                </mxCell>
                <mxCell id="fU_N-OgkvJ_QbkL2twpL-5" value="" style="edgeStyle=entityRelationEdgeStyle;startArrow=none;endArrow=none;segment=10;curved=1;sourcePerimeterSpacing=0;targetPerimeterSpacing=0;rounded=0;" parent="fU_N-OgkvJ_QbkL2twpL-1" source="fU_N-OgkvJ_QbkL2twpL-6" target="fU_N-OgkvJ_QbkL2twpL-10" edge="1">
                    <mxGeometry relative="1" as="geometry"/>
                </mxCell>
                <mxCell id="fU_N-OgkvJ_QbkL2twpL-6" value="Central Idea" style="ellipse;whiteSpace=wrap;html=1;align=center;treeFolding=1;treeMoving=1;newEdgeStyle={&quot;edgeStyle&quot;:&quot;entityRelationEdgeStyle&quot;,&quot;startArrow&quot;:&quot;none&quot;,&quot;endArrow&quot;:&quot;none&quot;,&quot;segment&quot;:10,&quot;curved&quot;:1,&quot;sourcePerimeterSpacing&quot;:0,&quot;targetPerimeterSpacing&quot;:0};" parent="fU_N-OgkvJ_QbkL2twpL-1" vertex="1">
                    <mxGeometry x="160" y="60" width="100" height="40" as="geometry"/>
                </mxCell>
                <mxCell id="fU_N-OgkvJ_QbkL2twpL-7" value="Topic" style="whiteSpace=wrap;html=1;rounded=1;arcSize=50;align=center;verticalAlign=middle;strokeWidth=1;autosize=1;spacing=4;treeFolding=1;treeMoving=1;newEdgeStyle={&quot;edgeStyle&quot;:&quot;entityRelationEdgeStyle&quot;,&quot;startArrow&quot;:&quot;none&quot;,&quot;endArrow&quot;:&quot;none&quot;,&quot;segment&quot;:10,&quot;curved&quot;:1,&quot;sourcePerimeterSpacing&quot;:0,&quot;targetPerimeterSpacing&quot;:0};" parent="fU_N-OgkvJ_QbkL2twpL-1" vertex="1">
                    <mxGeometry x="320" y="40" width="80" height="20" as="geometry"/>
                </mxCell>
                <mxCell id="fU_N-OgkvJ_QbkL2twpL-8" value="Branch" style="whiteSpace=wrap;html=1;shape=partialRectangle;top=0;left=0;bottom=1;right=0;points=[[0,1],[1,1]];fillColor=none;align=center;verticalAlign=bottom;routingCenterY=0.5;snapToPoint=1;autosize=1;treeFolding=1;treeMoving=1;newEdgeStyle={&quot;edgeStyle&quot;:&quot;entityRelationEdgeStyle&quot;,&quot;startArrow&quot;:&quot;none&quot;,&quot;endArrow&quot;:&quot;none&quot;,&quot;segment&quot;:10,&quot;curved&quot;:1,&quot;sourcePerimeterSpacing&quot;:0,&quot;targetPerimeterSpacing&quot;:0};" parent="fU_N-OgkvJ_QbkL2twpL-1" vertex="1">
                    <mxGeometry x="320" y="80" width="72" height="26" as="geometry"/>
                </mxCell>
                <mxCell id="fU_N-OgkvJ_QbkL2twpL-9" value="Topic" style="whiteSpace=wrap;html=1;rounded=1;arcSize=50;align=center;verticalAlign=middle;strokeWidth=1;autosize=1;spacing=4;treeFolding=1;treeMoving=1;newEdgeStyle={&quot;edgeStyle&quot;:&quot;entityRelationEdgeStyle&quot;,&quot;startArrow&quot;:&quot;none&quot;,&quot;endArrow&quot;:&quot;none&quot;,&quot;segment&quot;:10,&quot;curved&quot;:1,&quot;sourcePerimeterSpacing&quot;:0,&quot;targetPerimeterSpacing&quot;:0};" parent="fU_N-OgkvJ_QbkL2twpL-1" vertex="1">
                    <mxGeometry x="20" y="40" width="80" height="20" as="geometry"/>
                </mxCell>
                <mxCell id="fU_N-OgkvJ_QbkL2twpL-10" value="Branch" style="whiteSpace=wrap;html=1;shape=partialRectangle;top=0;left=0;bottom=1;right=0;points=[[0,1],[1,1]];fillColor=none;align=center;verticalAlign=bottom;routingCenterY=0.5;snapToPoint=1;autosize=1;treeFolding=1;treeMoving=1;newEdgeStyle={&quot;edgeStyle&quot;:&quot;entityRelationEdgeStyle&quot;,&quot;startArrow&quot;:&quot;none&quot;,&quot;endArrow&quot;:&quot;none&quot;,&quot;segment&quot;:10,&quot;curved&quot;:1,&quot;sourcePerimeterSpacing&quot;:0,&quot;targetPerimeterSpacing&quot;:0};" parent="fU_N-OgkvJ_QbkL2twpL-1" vertex="1">
                    <mxGeometry x="20" y="80" width="72" height="26" as="geometry"/>
                </mxCell>
                <mxCell id="2" value="" style="edgeStyle=entityRelationEdgeStyle;startArrow=none;endArrow=none;segment=10;curved=1;sourcePerimeterSpacing=0;targetPerimeterSpacing=0;rounded=0;" edge="1" target="3" source="fU_N-OgkvJ_QbkL2twpL-8" parent="fU_N-OgkvJ_QbkL2twpL-1">
                    <mxGeometry relative="1" as="geometry">
                        <mxPoint x="710" y="440" as="sourcePoint"/>
                    </mxGeometry>
                </mxCell>
                <mxCell id="3" value="Branch" style="whiteSpace=wrap;html=1;shape=partialRectangle;top=0;left=0;bottom=1;right=0;points=[[0,1],[1,1]];fillColor=none;align=center;verticalAlign=bottom;routingCenterY=0.5;snapToPoint=1;autosize=1;treeFolding=1;treeMoving=1;newEdgeStyle={&quot;edgeStyle&quot;:&quot;entityRelationEdgeStyle&quot;,&quot;startArrow&quot;:&quot;none&quot;,&quot;endArrow&quot;:&quot;none&quot;,&quot;segment&quot;:10,&quot;curved&quot;:1,&quot;sourcePerimeterSpacing&quot;:0,&quot;targetPerimeterSpacing&quot;:0};" vertex="1" parent="fU_N-OgkvJ_QbkL2twpL-1">
                    <mxGeometry x="432" y="80" width="72" height="26" as="geometry"/>
                </mxCell>
            </root>
        </mxGraphModel>
    </diagram>
</mxfile>